<?xml version="1.0" encoding="UTF-8"?>
<!-- Generated by jsxcad -->
<!DOCTYPE svg PUBLIC "-//W3C//DTD SVG 1.1 Tiny//EN" "http://www.w3.org/Graphics/SVG/1.1/DTD/svg11-tiny.dtd">
<svg baseProfile="tiny" height="28.294416243654844mm" width="20.000000000000014mm" viewBox="-10.000000000000007 -17.480541455160758 20.000000000000014 28.294416243654844" version="1.1" stroke="black" stroke-width=".1" fill="none" xmlns="http://www.w3.org/2000/svg">
<path fill="#000000" stroke="#000000" d="M-10 -3.7478849407783397 L-10 -7.280879864636208 L-10 13.947546531302878 L-10 17.480541455160743 z"/>
<path fill="#000000" stroke="#000000" d="M10 -3.7478849407783428 L10 -7.280879864636209 L-10 -7.280879864636209 L-10 -3.7478849407783428 z"/>
<path fill="#000000" stroke="#000000" d="M10 17.480541455160743 L10 13.947546531302878 L10 -7.280879864636208 L10 -3.7478849407783397 z"/>
<path fill="#000000" stroke="#000000" d="M-10 17.480541455160743 L-10 13.947546531302876 L10 13.947546531302876 L10 17.480541455160743 z"/>
<path fill="#000000" stroke="#000000" d="M-10 -3.747884940778339 L-10 17.480541455160743 L10 17.480541455160743 L10 -3.747884940778339 z"/>
<path fill="#000000" stroke="#000000" d="M-10 -7.280879864636206 L10 -7.280879864636206 L10 13.947546531302876 L-10 13.947546531302876 z"/>
<path fill="#000000" stroke="#000000" d="M-10 10.41455160744501 L-10 13.947546531302878 L-10 -7.280879864636208 L-10 -10.813874788494076 z"/>
<path fill="#000000" stroke="#000000" d="M10 10.41455160744501 L10 13.947546531302876 L-10 13.947546531302876 L-10 10.41455160744501 z"/>
<path fill="#000000" stroke="#000000" d="M10 -10.813874788494076 L10 -7.280879864636208 L10 13.947546531302878 L10 10.41455160744501 z"/>
<path fill="#000000" stroke="#000000" d="M-10 -10.813874788494076 L-10 -7.280879864636209 L10 -7.280879864636209 L10 -10.813874788494076 z"/>
<path fill="#000000" stroke="#000000" d="M-10 10.414551607445008 L-10 -10.813874788494074 L10 -10.813874788494074 L10 10.414551607445008 z"/>
<path fill="#000000" stroke="#000000" d="M-10 13.947546531302876 L10 13.947546531302876 L10 -7.280879864636206 L-10 -7.280879864636206 z"/>
</svg>